<svg xmlns="http://www.w3.org/2000/svg" width="16" height="11" viewBox="0 0 16 11">
  <metadata><?xpacket begin="﻿" id="W5M0MpCehiHzreSzNTczkc9d"?>
<x:xmpmeta xmlns:x="adobe:ns:meta/" x:xmptk="Adobe XMP Core 5.6-c138 79.159824, 2016/09/14-01:09:01        ">
   <rdf:RDF xmlns:rdf="http://www.w3.org/1999/02/22-rdf-syntax-ns#">
      <rdf:Description rdf:about=""/>
   </rdf:RDF>
</x:xmpmeta>
                                                                                                    
                                                                                                    
                                                                                                    
                                                                                                    
                                                                                                    
                                                                                                    
                                                                                                    
                                                                                                    
                                                                                                    
                                                                                                    
                                                                                                    
                                                                                                    
                                                                                                    
                                                                                                    
                                                                                                    
                                                                                                    
                                                                                                    
                                                                                                    
                                                                                                    
                                                                                                    
                           
<?xpacket end="w"?></metadata>
<defs>
    <style>
      .cls-1 {
        fill: #019ec4;
        fill-rule: evenodd;
      }
    </style>
  </defs>
  <path id="Фигура_12" data-name="Фигура 12" class="cls-1" d="M55.125,538H42.875A1.82,1.82,0,0,0,41,539.753v7.489A1.82,1.82,0,0,0,42.875,549h12.25A1.82,1.82,0,0,0,57,547.242v-7.489A1.82,1.82,0,0,0,55.125,538Zm0.625,9.244a0.607,0.607,0,0,1-.625.586H42.875a0.607,0.607,0,0,1-.625-0.586v-7.489a0.607,0.607,0,0,1,.625-0.586h12.25a0.607,0.607,0,0,1,.625.586v7.489Zm-0.106-8.515L49,543.354l-6.644-4.627-0.746.94L49,544.812l7.39-5.145Z" transform="translate(-41 -538)"/>
</svg>
