<svg xmlns="http://www.w3.org/2000/svg" width="17.375" height="9.438" viewBox="0 0 17.375 9.438">
  <metadata><?xpacket begin="﻿" id="W5M0MpCehiHzreSzNTczkc9d"?>
<x:xmpmeta xmlns:x="adobe:ns:meta/" x:xmptk="Adobe XMP Core 5.6-c138 79.159824, 2016/09/14-01:09:01        ">
   <rdf:RDF xmlns:rdf="http://www.w3.org/1999/02/22-rdf-syntax-ns#">
      <rdf:Description rdf:about=""/>
   </rdf:RDF>
</x:xmpmeta>
                                                                                                    
                                                                                                    
                                                                                                    
                                                                                                    
                                                                                                    
                                                                                                    
                                                                                                    
                                                                                                    
                                                                                                    
                                                                                                    
                                                                                                    
                                                                                                    
                                                                                                    
                                                                                                    
                                                                                                    
                                                                                                    
                                                                                                    
                                                                                                    
                                                                                                    
                                                                                                    
                           
<?xpacket end="w"?></metadata>
<defs>
    <style>
      .cls-1 {
        fill: #c2c2c2;
        fill-rule: evenodd;
      }
    </style>
  </defs>
  <path id="Фигура_2" data-name="Фигура 2" class="cls-1" d="M177.16,628.694a7.427,7.427,0,0,0-1.721-1.9c-1.452-1.284-1.257-1.075.492-3.3,1.065-1.352,1.49-2.179,1.357-2.531a1.047,1.047,0,0,0-.91-0.249l-2.6.015a0.629,0.629,0,0,0-.337.057,0.7,0.7,0,0,0-.23.267,13.936,13.936,0,0,1-.963,1.936c-1.16,1.878-1.624,1.976-1.814,1.86-0.441-.271-0.33-1.092-0.33-1.674,0-1.82.289-2.579-.565-2.776a4.777,4.777,0,0,0-1.216-.115,5.879,5.879,0,0,0-2.162.211c-0.3.138-.526,0.447-0.386,0.464a1.191,1.191,0,0,1,.769.369,2.29,2.29,0,0,1,.258,1.124s0.154,2.142-.359,2.408c-0.352.183-.834-0.19-1.868-1.894a15.546,15.546,0,0,1-.931-1.837,0.745,0.745,0,0,0-.214-0.277,1.119,1.119,0,0,0-.4-0.153l-2.476.014a0.876,0.876,0,0,0-.508.165,0.49,0.49,0,0,0-.01.42,26.639,26.639,0,0,0,4.133,6.5,6.111,6.111,0,0,0,4.3,1.867H169.5a0.894,0.894,0,0,0,.473-0.2,0.7,0.7,0,0,0,.142-0.433s-0.021-1.324.625-1.52,1.452,1.28,2.318,1.847a1.706,1.706,0,0,0,1.151.335l2.315-.031S177.734,629.6,177.16,628.694Z" transform="translate(-159.969 -620.281)"/>
</svg>
