<svg xmlns="http://www.w3.org/2000/svg" width="16" height="16" viewBox="0 0 16 16">
  <metadata><?xpacket begin="﻿" id="W5M0MpCehiHzreSzNTczkc9d"?>
<x:xmpmeta xmlns:x="adobe:ns:meta/" x:xmptk="Adobe XMP Core 5.6-c138 79.159824, 2016/09/14-01:09:01        ">
   <rdf:RDF xmlns:rdf="http://www.w3.org/1999/02/22-rdf-syntax-ns#">
      <rdf:Description rdf:about=""/>
   </rdf:RDF>
</x:xmpmeta>
                                                                                                    
                                                                                                    
                                                                                                    
                                                                                                    
                                                                                                    
                                                                                                    
                                                                                                    
                                                                                                    
                                                                                                    
                                                                                                    
                                                                                                    
                                                                                                    
                                                                                                    
                                                                                                    
                                                                                                    
                                                                                                    
                                                                                                    
                                                                                                    
                                                                                                    
                                                                                                    
                           
<?xpacket end="w"?></metadata>
<defs>
    <style>
      .cls-1 {
        fill: #019ec4;
        fill-rule: evenodd;
      }
    </style>
  </defs>
  <path id="Фигура_11" data-name="Фигура 11" class="cls-1" d="M58,587.89a2.366,2.366,0,0,0-.726-1.626,5.819,5.819,0,0,0-2.3-1.53,2.577,2.577,0,0,0-2.645.751l0,0-0.845.838a12.622,12.622,0,0,1-2.664-2.061l-0.082-.082a12.666,12.666,0,0,1-2.061-2.664l0.839-.845,0,0a2.576,2.576,0,0,0,.751-2.645,5.81,5.81,0,0,0-1.529-2.3,2.378,2.378,0,0,0-3.3-.119l-0.018.016-0.024.023A5.074,5.074,0,0,0,42,579.36a11.868,11.868,0,0,0,3.778,7.86,15.142,15.142,0,0,0,1.5,1.3,0.625,0.625,0,1,0,.761-0.991,13.977,13.977,0,0,1-1.375-1.2,10.613,10.613,0,0,1-3.411-6.982,3.86,3.86,0,0,1,1.014-2.813l0-.005a1.125,1.125,0,0,1,1.566.057c1.618,1.678,1.5,2.47.786,3.2l-1.159,1.167a0.626,0.626,0,0,0-.127.7,12.644,12.644,0,0,0,2.513,3.411l0.082,0.082a12.626,12.626,0,0,0,3.41,2.512,0.624,0.624,0,0,0,.695-0.127l1.167-1.159c0.733-.715,1.526-0.832,3.2.786a1.125,1.125,0,0,1,.057,1.566l0,0a3.848,3.848,0,0,1-2.784,1.014H53.644a8.13,8.13,0,0,1-3.084-.73,0.625,0.625,0,1,0-.5,1.147,9.226,9.226,0,0,0,3.573.833h0.035a5.062,5.062,0,0,0,3.679-1.391l0.023-.025,0.016-.018A2.366,2.366,0,0,0,58,587.89Z" transform="translate(-42 -575)"/>
</svg>
