<svg xmlns="http://www.w3.org/2000/svg" width="16" height="16" viewBox="0 0 16 16">
  <metadata><?xpacket begin="﻿" id="W5M0MpCehiHzreSzNTczkc9d"?>
<x:xmpmeta xmlns:x="adobe:ns:meta/" x:xmptk="Adobe XMP Core 5.6-c138 79.159824, 2016/09/14-01:09:01        ">
   <rdf:RDF xmlns:rdf="http://www.w3.org/1999/02/22-rdf-syntax-ns#">
      <rdf:Description rdf:about=""/>
   </rdf:RDF>
</x:xmpmeta>
                                                                                                    
                                                                                                    
                                                                                                    
                                                                                                    
                                                                                                    
                                                                                                    
                                                                                                    
                                                                                                    
                                                                                                    
                                                                                                    
                                                                                                    
                                                                                                    
                                                                                                    
                                                                                                    
                                                                                                    
                                                                                                    
                                                                                                    
                                                                                                    
                                                                                                    
                                                                                                    
                           
<?xpacket end="w"?></metadata>
<defs>
    <style>
      .cls-1 {
        fill: #019ec4;
        fill-rule: evenodd;
      }
    </style>
  </defs>
  <path id="Фигура_13" data-name="Фигура 13" class="cls-1" d="M53.654,494.34a8,8,0,1,0,0,11.313A8,8,0,0,0,53.654,494.34ZM53.32,504.512a7.962,7.962,0,0,0-1.195-.884,12.959,12.959,0,0,0,.483-3.122H54.96a6.915,6.915,0,0,1-1.639,4.006h0Zm-12.283-4.006h2.352a12.949,12.949,0,0,0,.483,3.122,7.963,7.963,0,0,0-1.195.884A6.917,6.917,0,0,1,41.037,500.506Zm1.639-5.026a8.044,8.044,0,0,0,1.195.885,12.934,12.934,0,0,0-.483,3.122H41.037A6.917,6.917,0,0,1,42.676,495.48Zm4.812,0.99a6.911,6.911,0,0,1-2.376-.6c0.432-1.113,1.229-2.448,2.376-2.778v3.38Zm0,1.022v2h-3.08a12,12,0,0,1,.387-2.643A7.959,7.959,0,0,0,47.489,497.492Zm0,3.014v2a7.935,7.935,0,0,0-2.693.648,12.011,12.011,0,0,1-.387-2.643h3.08Zm0,3.016v3.38c-1.147-.331-1.944-1.665-2.376-2.778A6.911,6.911,0,0,1,47.489,503.522Zm1.019,0a6.912,6.912,0,0,1,2.376.6c-0.432,1.113-1.229,2.447-2.376,2.778v-3.38Zm0-1.021v-2h3.08a12.011,12.011,0,0,1-.387,2.643,7.935,7.935,0,0,0-2.693-.648h0Zm0-3.014v-2a7.958,7.958,0,0,0,2.693-.648,12,12,0,0,1,.387,2.643h-3.08Zm0-3.017v-3.38c1.147,0.33,1.944,1.665,2.376,2.778A6.912,6.912,0,0,1,48.508,496.47ZM50.8,493.6a6.972,6.972,0,0,1,1.807,1.153,6.843,6.843,0,0,1-.82.623A7.692,7.692,0,0,0,50.8,493.6Zm-6.586,1.776a6.835,6.835,0,0,1-.82-0.623A6.973,6.973,0,0,1,45.2,493.6a7.691,7.691,0,0,0-.987,1.776h0Zm0,9.242a7.677,7.677,0,0,0,.987,1.777,6.977,6.977,0,0,1-1.807-1.154A7.051,7.051,0,0,1,44.212,504.617Zm7.573,0a7.059,7.059,0,0,1,.82.623,6.976,6.976,0,0,1-1.807,1.154,7.678,7.678,0,0,0,.987-1.777h0Zm0.823-5.13a12.944,12.944,0,0,0-.483-3.122,8.04,8.04,0,0,0,1.2-.885,6.917,6.917,0,0,1,1.639,4.007H52.608Z" transform="translate(-40 -492)"/>
</svg>
